<mxfile host="fEf">
  <diagram id="NxT" name="In progress">
    <mxGraphModel dx="0" dy="0" background="#FFFACD" grid="0" gridSize="10" guides="1" tooltips="1" connect="1" arrows="1" fold="1" page="1" pageScale="1" pageWidth="1169" pageHeight="827" math="0" shadow="0">
      <root>
        <mxCell id="page_root_NxT" parent="NxT"/>
        <mxCell id="node_root_NxT" parent="page_root_NxT"/>
        <mxCell id="NxT-2" value="move DrawioDsl::Formatters::Factory::FORMATTERS to resource file" style="whiteSpace=wrap;html=1;rounded=1;glass=1;fillColor=#d5e8d4;strokeColor=#82b366;fontColor=#333333" vertex="1" parent="node_root_NxT">
          <mxGeometry x="10" y="10" width="300" height="60" as="geometry"/>
        </mxCell>
        <mxCell id="NxT-3" value="move DrawioDsl::Formatters::StyleBuilder::MAPPINGS to resource file" style="whiteSpace=wrap;html=1;rounded=1;glass=1;fillColor=#d5e8d4;strokeColor=#82b366;fontColor=#333333" vertex="1" parent="node_root_NxT">
          <mxGeometry x="330" y="10" width="300" height="60" as="geometry"/>
        </mxCell>
      </root>
    </mxGraphModel>
  </diagram>
  <diagram id="6PF" name="To Do">
    <mxGraphModel dx="0" dy="0" background="#FFFACD" grid="0" gridSize="10" guides="1" tooltips="1" connect="1" arrows="1" fold="1" page="1" pageScale="1" pageWidth="1169" pageHeight="827" math="0" shadow="0">
      <root>
        <mxCell id="page_root_6PF" parent="6PF"/>
        <mxCell id="node_root_6PF" parent="page_root_6PF"/>
        <mxCell id="6PF-2" value="Add page background to theme, use it whenever the theme is set at a diagram/page level" style="whiteSpace=wrap;html=1;rounded=1;glass=1;fillColor=#dae8fc;strokeColor=#6c8ebf;fontColor=#333333" vertex="1" parent="node_root_6PF">
          <mxGeometry x="10" y="10" width="300" height="60" as="geometry"/>
        </mxCell>
        <mxCell id="6PF-3" value="need to setup new project plans" style="whiteSpace=wrap;html=1;rounded=1;glass=1;fillColor=#dae8fc;strokeColor=#6c8ebf;fontColor=#333333" vertex="1" parent="node_root_6PF">
          <mxGeometry x="330" y="10" width="300" height="60" as="geometry"/>
        </mxCell>
        <mxCell id="6PF-4" value="settings style attributes need to de-duplicate, might be best to utilize the new StyleBuilder class" style="whiteSpace=wrap;html=1;rounded=1;glass=1;fillColor=#dae8fc;strokeColor=#6c8ebf;fontColor=#333333" vertex="1" parent="node_root_6PF">
          <mxGeometry x="650" y="10" width="300" height="60" as="geometry"/>
        </mxCell>
        <mxCell id="6PF-5" value="write SVG directly into other projects" style="whiteSpace=wrap;html=1;rounded=1;glass=1;fillColor=#dae8fc;strokeColor=#6c8ebf;fontColor=#333333" vertex="1" parent="node_root_6PF">
          <mxGeometry x="10" y="90" width="300" height="60" as="geometry"/>
        </mxCell>
        <mxCell id="6PF-6" value="add :shape and :text-only to random shape generator" style="whiteSpace=wrap;html=1;rounded=1;glass=1;fillColor=#dae8fc;strokeColor=#6c8ebf;fontColor=#333333" vertex="1" parent="node_root_6PF">
          <mxGeometry x="330" y="90" width="300" height="60" as="geometry"/>
        </mxCell>
        <mxCell id="6PF-7" value="Nodes need to support child nodes" style="whiteSpace=wrap;html=1;rounded=1;glass=1;fillColor=#dae8fc;strokeColor=#6c8ebf;fontColor=#333333" vertex="1" parent="node_root_6PF">
          <mxGeometry x="650" y="90" width="300" height="60" as="geometry"/>
        </mxCell>
        <mxCell id="6PF-8" value="Grid layout does not position itself in relation to the last element" style="whiteSpace=wrap;html=1;rounded=1;glass=1;fillColor=#dae8fc;strokeColor=#6c8ebf;fontColor=#333333" vertex="1" parent="node_root_6PF">
          <mxGeometry x="10" y="170" width="300" height="60" as="geometry"/>
        </mxCell>
        <mxCell id="6PF-9" value="Dynamic sized shapes that expand to the size of their text" style="whiteSpace=wrap;html=1;rounded=1;glass=1;fillColor=#dae8fc;strokeColor=#6c8ebf;fontColor=#333333" vertex="1" parent="node_root_6PF">
          <mxGeometry x="330" y="170" width="300" height="60" as="geometry"/>
        </mxCell>
        <mxCell id="6PF-10" value="Control of text padding left, right, top and bottom" style="whiteSpace=wrap;html=1;rounded=1;glass=1;fillColor=#dae8fc;strokeColor=#6c8ebf;fontColor=#333333" vertex="1" parent="node_root_6PF">
          <mxGeometry x="650" y="170" width="300" height="60" as="geometry"/>
        </mxCell>
        <mxCell id="6PF-11" value="Improve the theme control over text-only shapes" style="whiteSpace=wrap;html=1;rounded=1;glass=1;fillColor=#dae8fc;strokeColor=#6c8ebf;fontColor=#333333" vertex="1" parent="node_root_6PF">
          <mxGeometry x="10" y="250" width="300" height="60" as="geometry"/>
        </mxCell>
        <mxCell id="6PF-12" value="x,y settings do not work for shapes within a grid layout" style="whiteSpace=wrap;html=1;rounded=1;glass=1;fillColor=#dae8fc;strokeColor=#6c8ebf;fontColor=#333333" vertex="1" parent="node_root_6PF">
          <mxGeometry x="330" y="250" width="300" height="60" as="geometry"/>
        </mxCell>
        <mxCell id="6PF-13" value="page layout so that you drop elements on and they are positioned correctly, e.g centered, left, right, etc, maybe a grid layout with a wrap of 1 and a width of the page is sufficient" style="whiteSpace=wrap;html=1;rounded=1;glass=1;fillColor=#dae8fc;strokeColor=#6c8ebf;fontColor=#333333" vertex="1" parent="node_root_6PF">
          <mxGeometry x="650" y="250" width="300" height="60" as="geometry"/>
        </mxCell>
      </root>
    </mxGraphModel>
  </diagram>
  <diagram id="zcE" name="Done">
    <mxGraphModel dx="0" dy="0" background="#FFFACD" grid="0" gridSize="10" guides="1" tooltips="1" connect="1" arrows="1" fold="1" page="1" pageScale="1" pageWidth="1169" pageHeight="827" math="0" shadow="0">
      <root>
        <mxCell id="page_root_zcE" parent="zcE"/>
        <mxCell id="node_root_zcE" parent="page_root_zcE"/>
        <mxCell id="zcE-2" value="alter configure_shape so it sets the default shape key and use that for selecting the default HTML formatter" style="whiteSpace=wrap;html=1;rounded=1;glass=1;fillColor=#f8cecc;strokeColor=#b85450;fontColor=#333333" vertex="1" parent="node_root_zcE">
          <mxGeometry x="10" y="10" width="300" height="60" as="geometry"/>
        </mxCell>
        <mxCell id="zcE-3" value="Add todo shape to simplify project plan drawing" style="whiteSpace=wrap;html=1;rounded=1;glass=1;fillColor=#f8cecc;strokeColor=#b85450;fontColor=#333333" vertex="1" parent="node_root_zcE">
          <mxGeometry x="330" y="10" width="300" height="60" as="geometry"/>
        </mxCell>
        <mxCell id="zcE-4" value="introduce .value property to shape and let it use either formatted HTML or plain text title" style="whiteSpace=wrap;html=1;rounded=1;glass=1;fillColor=#f8cecc;strokeColor=#b85450;fontColor=#333333" vertex="1" parent="node_root_zcE">
          <mxGeometry x="650" y="10" width="300" height="60" as="geometry"/>
        </mxCell>
        <mxCell id="zcE-5" value="formatter DSL that can render HTML directly into the value property" style="whiteSpace=wrap;html=1;rounded=1;glass=1;fillColor=#f8cecc;strokeColor=#b85450;fontColor=#333333" vertex="1" parent="node_root_zcE">
          <mxGeometry x="10" y="90" width="300" height="60" as="geometry"/>
        </mxCell>
        <mxCell id="zcE-6" value="formatter DSL for class and interface generation" style="whiteSpace=wrap;html=1;rounded=1;glass=1;fillColor=#f8cecc;strokeColor=#b85450;fontColor=#333333" vertex="1" parent="node_root_zcE">
          <mxGeometry x="330" y="90" width="300" height="60" as="geometry"/>
        </mxCell>
        <mxCell id="zcE-7" value="generate extension based graphics based on drawio extensions.js" style="whiteSpace=wrap;html=1;rounded=1;glass=1;fillColor=#f8cecc;strokeColor=#b85450;fontColor=#333333" vertex="1" parent="node_root_zcE">
          <mxGeometry x="650" y="90" width="300" height="60" as="geometry"/>
        </mxCell>
        <mxCell id="zcE-8" value="active? flag on page defaulting to true. set to false to exclude page from diagram." style="whiteSpace=wrap;html=1;rounded=1;glass=1;fillColor=#f8cecc;strokeColor=#b85450;fontColor=#333333" vertex="1" parent="node_root_zcE">
          <mxGeometry x="10" y="170" width="300" height="60" as="geometry"/>
        </mxCell>
        <mxCell id="zcE-9" value="first level child nodes need to hang of node 1" style="whiteSpace=wrap;html=1;rounded=1;glass=1;fillColor=#f8cecc;strokeColor=#b85450;fontColor=#333333" vertex="1" parent="node_root_zcE">
          <mxGeometry x="330" y="170" width="300" height="60" as="geometry"/>
        </mxCell>
        <mxCell id="zcE-10" value="node has child nodes and add_node will set a nodes parent" style="whiteSpace=wrap;html=1;rounded=1;glass=1;fillColor=#f8cecc;strokeColor=#b85450;fontColor=#333333" vertex="1" parent="node_root_zcE">
          <mxGeometry x="650" y="170" width="300" height="60" as="geometry"/>
        </mxCell>
        <mxCell id="zcE-11" value="nodes can belong to a parent node, the top level node responds with truthy to root?" style="whiteSpace=wrap;html=1;rounded=1;glass=1;fillColor=#f8cecc;strokeColor=#b85450;fontColor=#333333" vertex="1" parent="node_root_zcE">
          <mxGeometry x="10" y="250" width="300" height="60" as="geometry"/>
        </mxCell>
        <mxCell id="zcE-12" value="add sample diagram for the github readme file" style="whiteSpace=wrap;html=1;rounded=1;glass=1;fillColor=#f8cecc;strokeColor=#b85450;fontColor=#333333" vertex="1" parent="node_root_zcE">
          <mxGeometry x="330" y="250" width="300" height="60" as="geometry"/>
        </mxCell>
        <mxCell id="zcE-13" value="write samples into docs folder and display in readme" style="whiteSpace=wrap;html=1;rounded=1;glass=1;fillColor=#f8cecc;strokeColor=#b85450;fontColor=#333333" vertex="1" parent="node_root_zcE">
          <mxGeometry x="650" y="250" width="300" height="60" as="geometry"/>
        </mxCell>
        <mxCell id="zcE-14" value="add export as .PNG, needs to take a page number as the PNG will not support multiple pages" style="whiteSpace=wrap;html=1;rounded=1;glass=1;fillColor=#f8cecc;strokeColor=#b85450;fontColor=#333333" vertex="1" parent="node_root_zcE">
          <mxGeometry x="10" y="330" width="300" height="60" as="geometry"/>
        </mxCell>
        <mxCell id="zcE-15" value="add export as .SVG, needs to take a page number as the SVG will not support multiple pages" style="whiteSpace=wrap;html=1;rounded=1;glass=1;fillColor=#f8cecc;strokeColor=#b85450;fontColor=#333333" vertex="1" parent="node_root_zcE">
          <mxGeometry x="330" y="330" width="300" height="60" as="geometry"/>
        </mxCell>
        <mxCell id="zcE-16" value="add save as .drawio" style="whiteSpace=wrap;html=1;rounded=1;glass=1;fillColor=#f8cecc;strokeColor=#b85450;fontColor=#333333" vertex="1" parent="node_root_zcE">
          <mxGeometry x="650" y="330" width="300" height="60" as="geometry"/>
        </mxCell>
      </root>
    </mxGraphModel>
  </diagram>
</mxfile>